<svg width="162" height="34" viewBox="0 0 162 34" fill="none" xmlns="http://www.w3.org/2000/svg">
<path d="M32.6113 16.6115C32.6113 25.4518 25.4516 32.6115 16.6113 32.6115C7.77102 32.6115 0.611328 25.4518 0.611328 16.6115C0.611328 7.77124 7.77102 0.611511 16.6113 0.611511C25.4516 0.611511 32.6113 7.77124 32.6113 16.6115Z" stroke="#F5F3EC" stroke-width="1.22302" stroke-miterlimit="10"/>
<path d="M15.5552 24.0248L10.0991 9.19894H12.079L15.2099 17.993C15.3941 18.4995 15.6013 19.1672 15.8775 20.019C16.1538 20.8708 16.4531 21.9068 16.8214 23.1269H16.4531C16.8214 21.8608 17.1207 20.8018 17.3969 19.9961C17.6732 19.1673 17.8804 18.4995 18.0646 17.993L21.1264 9.19894H23.1293L17.7423 24.0248H15.5552Z" fill="#F5F3EC"/>
<path d="M48.6118 32.6115C57.4483 32.6115 64.6117 25.4481 64.6117 16.6115C64.6117 7.77497 57.4483 0.611511 48.6118 0.611511C39.7752 0.611511 32.6118 7.77497 32.6118 16.6115C32.6118 25.4481 39.7752 32.6115 48.6118 32.6115Z" stroke="#F5F3EC" stroke-width="1.22302" stroke-miterlimit="10"/>
<path d="M49.5533 9.19894V24.0248H47.6655V9.19894H49.5533Z" fill="#F5F3EC"/>
<path d="M96.6128 16.6115C96.6128 25.4518 89.4531 32.6115 80.6128 32.6115C71.7725 32.6115 64.6128 25.4518 64.6128 16.6115C64.6128 7.77124 71.7725 0.611511 80.6128 0.611511C89.4531 0.611511 96.6128 7.77124 96.6128 16.6115Z" stroke="#F5F3EC" stroke-width="1.22302" stroke-miterlimit="10"/>
<path d="M80.6112 24.2547C79.5522 24.2547 78.6083 24.0935 77.8256 23.7482C77.0428 23.4028 76.4212 22.9195 75.9838 22.2979C75.5464 21.6764 75.2932 20.9396 75.2241 20.1109H77.158C77.204 20.6634 77.4112 21.1238 77.7335 21.4921C78.0558 21.8604 78.4702 22.1138 78.9766 22.2979C79.4831 22.4821 80.0357 22.5742 80.6112 22.5742C81.2788 22.5742 81.8774 22.459 82.4299 22.2519C82.9594 22.0216 83.3738 21.7223 83.6961 21.3309C84.0184 20.9396 84.1565 20.4792 84.1565 19.9497C84.1565 19.4662 84.0184 19.0979 83.7651 18.7986C83.4889 18.4993 83.1435 18.2461 82.6831 18.0619C82.2227 17.8777 81.7623 17.6936 81.2097 17.5555L79.4141 17.049C78.2169 16.7036 77.2961 16.2202 76.6284 15.5986C75.9608 14.977 75.6385 14.1483 75.6385 13.1814C75.6385 12.3526 75.8687 11.6159 76.3061 10.9943C76.7666 10.3727 77.3651 9.88924 78.1479 9.54391C78.9306 9.19859 79.7824 9.03751 80.7263 9.03751C81.6702 9.03751 82.568 9.19859 83.3047 9.54391C84.0414 9.88924 84.6399 10.3496 85.0773 10.9482C85.5147 11.5468 85.745 12.2144 85.768 12.9741H83.9263C83.8342 12.2604 83.4889 11.6849 82.8903 11.2936C82.2917 10.9022 81.532 10.695 80.6572 10.695C80.0126 10.695 79.4601 10.8101 78.9766 11.0173C78.4932 11.2245 78.1248 11.5238 77.8486 11.8691C77.5723 12.2375 77.4572 12.6518 77.4572 13.1122C77.4572 13.6187 77.6184 14.0562 77.9407 14.3555C78.263 14.6778 78.6543 14.908 79.0918 15.0922C79.5292 15.2764 79.9205 15.4145 80.2889 15.5066L81.7623 15.9209C82.1536 16.036 82.591 16.1742 83.0745 16.3583C83.5579 16.5425 84.0184 16.7958 84.4558 17.095C84.8932 17.3943 85.2615 17.7857 85.5378 18.2692C85.8141 18.7296 85.9522 19.328 85.9522 20.0187C85.9522 20.8244 85.745 21.5612 85.3306 22.2058C84.9162 22.8504 84.2946 23.3568 83.4889 23.7482C82.6831 24.1395 81.7162 24.3237 80.5651 24.3237L80.6112 24.2547Z" fill="#F5F3EC"/>
<path d="M112.613 32.6115C121.45 32.6115 128.613 25.4481 128.613 16.6115C128.613 7.77497 121.45 0.611511 112.613 0.611511C103.777 0.611511 96.6133 7.77497 96.6133 16.6115C96.6133 25.4481 103.777 32.6115 112.613 32.6115Z" stroke="#F5F3EC" stroke-width="1.22302" stroke-miterlimit="10"/>
<path d="M105.198 24.0253V9.19942H107.892L111.552 18.5462C111.644 18.7764 111.737 19.0296 111.852 19.3749C111.967 19.6972 112.082 20.0656 112.197 20.4339C112.312 20.8023 112.45 21.1937 112.542 21.585C112.657 21.9764 112.75 22.3216 112.842 22.6439H112.427C112.519 22.3446 112.634 21.9993 112.727 21.631C112.842 21.2626 112.957 20.8713 113.072 20.4799C113.187 20.0885 113.325 19.7202 113.417 19.3749C113.509 19.0296 113.624 18.7533 113.716 18.5231L117.308 9.17638H120.001V24.0023H118.137V15.5303C118.137 15.2311 118.137 14.8857 118.137 14.4943C118.137 14.103 118.137 13.6885 118.137 13.2511C118.137 12.8137 118.137 12.3764 118.16 11.939C118.16 11.5016 118.16 11.0642 118.183 10.6498H118.344C118.206 11.1102 118.044 11.5706 117.906 12.0541C117.745 12.5145 117.584 12.9749 117.446 13.4353C117.285 13.8727 117.147 14.2871 117.032 14.6325C116.916 14.9778 116.778 15.3001 116.686 15.5303L113.371 24.0023H111.737L108.375 15.5303C108.283 15.3001 108.168 15.0008 108.053 14.6555C107.938 14.2872 107.8 13.8958 107.639 13.4583C107.501 13.0209 107.339 12.5606 107.178 12.0771C107.017 11.5937 106.856 11.1102 106.695 10.6267H106.879C106.879 10.9951 106.902 11.3864 106.902 11.8238C106.902 12.2612 106.902 12.6986 106.925 13.136C106.925 13.5734 106.925 13.9878 106.925 14.4022C106.925 14.8166 106.925 15.162 106.925 15.5073V23.9792H105.129L105.198 24.0253Z" fill="#F5F3EC"/>
<path d="M144.609 32.6115C153.446 32.6115 160.609 25.4481 160.609 16.6115C160.609 7.77497 153.446 0.611511 144.609 0.611511C135.773 0.611511 128.609 7.77497 128.609 16.6115C128.609 25.4481 135.773 32.6115 144.609 32.6115Z" stroke="#F5F3EC" stroke-width="1.22302" stroke-miterlimit="10"/>
<path d="M144.609 24.2104C143.342 24.2104 142.214 23.9112 141.224 23.2897C140.234 22.6681 139.452 21.7932 138.876 20.6652C138.301 19.5371 138.024 18.1788 138.024 16.6133C138.024 15.0479 138.301 13.6896 138.876 12.5385C139.452 11.4104 140.234 10.5127 141.224 9.91414C142.214 9.31558 143.342 8.99323 144.609 8.99323C145.875 8.99323 147.003 9.29256 147.993 9.91414C148.983 10.5357 149.765 11.4104 150.318 12.5385C150.87 13.6896 151.17 15.0249 151.17 16.6133C151.17 18.2018 150.893 19.5371 150.318 20.6652C149.742 21.8162 148.96 22.6911 147.993 23.2897C147.003 23.9112 145.875 24.2104 144.609 24.2104ZM144.609 22.4608C145.483 22.4608 146.289 22.2306 147.003 21.7932C147.717 21.3328 148.269 20.6882 148.706 19.8134C149.121 18.9386 149.351 17.8795 149.351 16.6133C149.351 15.3472 149.144 14.2651 148.706 13.3903C148.292 12.5155 147.717 11.8479 147.003 11.4105C146.289 10.973 145.483 10.7429 144.609 10.7429C143.734 10.7429 142.928 10.973 142.191 11.4105C141.455 11.8479 140.902 12.5155 140.488 13.3903C140.073 14.2651 139.843 15.3241 139.843 16.5903C139.843 17.8565 140.05 18.9155 140.488 19.7903C140.902 20.6652 141.478 21.3327 142.191 21.7702C142.905 22.2076 143.711 22.4379 144.609 22.4379V22.4608Z" fill="#F5F3EC"/>
</svg>
